<?xml version="1.0" encoding="UTF-8" standalone="no"?>
<!DOCTYPE svg PUBLIC "-//W3C//DTD SVG 1.1//EN"
 "http://www.w3.org/Graphics/SVG/1.1/DTD/svg11.dtd">
<!-- Generated by graphviz version 15.1.0 (20260618.0150)
 -->
<!-- Title: edge_analytics_ip Pages: 1 -->
<svg width="1536pt" height="169pt"
 viewBox="0.00 0.00 1536.00 169.00" xmlns="http://www.w3.org/2000/svg" xmlns:xlink="http://www.w3.org/1999/xlink">
<g id="graph0" class="graph" transform="scale(1 1) rotate(0) translate(4 165.12)">
<title>edge_analytics_ip</title>
<polygon fill="white" stroke="none" points="-4,4 -4,-165.12 1532,-165.12 1532,4 -4,4"/>
<text xml:space="preserve" text-anchor="middle" x="764" y="-140.03" font-family="Helvetica,sans-Serif" font-size="18.00">Edge Analytics IP &#160;— &#160;on&#45;chip pipeline (soil moisture · nutrient · temperature)</text>
<!-- sensors -->
<g id="node1" class="node">
<title>sensors</title>
<polygon fill="#eceff1" stroke="black" stroke-width="1.4" points="163.75,-76 0,-76 0,-40 163.75,-40 163.75,-76"/>
<text xml:space="preserve" text-anchor="middle" x="81.88" y="-59.15" font-family="Helvetica,sans-Serif" font-size="13.00">3 field sensors</text>
<text xml:space="preserve" text-anchor="middle" x="81.88" y="-45.65" font-family="Helvetica,sans-Serif" font-size="13.00">moisture · nutrient · temp</text>
</g>
<!-- collect -->
<g id="node2" class="node">
<title>collect</title>
<path fill="#e3f2fd" stroke="black" stroke-width="1.4" d="M332.25,-76C332.25,-76 212.75,-76 212.75,-76 206.75,-76 200.75,-70 200.75,-64 200.75,-64 200.75,-52 200.75,-52 200.75,-46 206.75,-40 212.75,-40 212.75,-40 332.25,-40 332.25,-40 338.25,-40 344.25,-46 344.25,-52 344.25,-52 344.25,-64 344.25,-64 344.25,-70 338.25,-76 332.25,-76"/>
<text xml:space="preserve" text-anchor="middle" x="272.5" y="-59.15" font-family="Helvetica,sans-Serif" font-size="13.00">sensor_collector</text>
<text xml:space="preserve" text-anchor="middle" x="272.5" y="-45.65" font-family="Helvetica,sans-Serif" font-size="13.00">(sample + timestamp)</text>
</g>
<!-- sensors&#45;&gt;collect -->
<g id="edge1" class="edge">
<title>sensors&#45;&gt;collect</title>
<path fill="none" stroke="#555555" stroke-width="1.4" d="M164.24,-58C172.18,-58 180.25,-58 188.22,-58"/>
<polygon fill="#555555" stroke="#555555" stroke-width="1.4" points="188.07,-61.5 198.07,-58 188.07,-54.5 188.07,-61.5"/>
</g>
<!-- smooth -->
<g id="node3" class="node">
<title>smooth</title>
<path fill="#e3f2fd" stroke="black" stroke-width="1.4" d="M500,-82.25C500,-82.25 393.25,-82.25 393.25,-82.25 387.25,-82.25 381.25,-76.25 381.25,-70.25 381.25,-70.25 381.25,-45.75 381.25,-45.75 381.25,-39.75 387.25,-33.75 393.25,-33.75 393.25,-33.75 500,-33.75 500,-33.75 506,-33.75 512,-39.75 512,-45.75 512,-45.75 512,-70.25 512,-70.25 512,-76.25 506,-82.25 500,-82.25"/>
<text xml:space="preserve" text-anchor="middle" x="446.62" y="-65.9" font-family="Helvetica,sans-Serif" font-size="13.00">smoothing_stage</text>
<text xml:space="preserve" text-anchor="middle" x="446.62" y="-52.4" font-family="Helvetica,sans-Serif" font-size="13.00">3× moving&#45;average</text>
<text xml:space="preserve" text-anchor="middle" x="446.62" y="-38.9" font-family="Helvetica,sans-Serif" font-size="13.00">(divider&#45;free)</text>
</g>
<!-- collect&#45;&gt;smooth -->
<g id="edge2" class="edge">
<title>collect&#45;&gt;smooth</title>
<path fill="none" stroke="#555555" stroke-width="1.4" d="M344.5,-58C352.44,-58 360.55,-58 368.55,-58"/>
<polygon fill="#555555" stroke="#555555" stroke-width="1.4" points="368.46,-61.5 378.46,-58 368.46,-54.5 368.46,-61.5"/>
</g>
<!-- engine -->
<g id="node4" class="node">
<title>engine</title>
<path fill="#e3f2fd" stroke="black" stroke-width="1.4" d="M817.5,-116.25C817.5,-116.25 646.25,-116.25 646.25,-116.25 640.25,-116.25 634.25,-110.25 634.25,-104.25 634.25,-104.25 634.25,-79.75 634.25,-79.75 634.25,-73.75 640.25,-67.75 646.25,-67.75 646.25,-67.75 817.5,-67.75 817.5,-67.75 823.5,-67.75 829.5,-73.75 829.5,-79.75 829.5,-79.75 829.5,-104.25 829.5,-104.25 829.5,-110.25 823.5,-116.25 817.5,-116.25"/>
<text xml:space="preserve" text-anchor="middle" x="731.88" y="-99.9" font-family="Helvetica,sans-Serif" font-size="13.00">analytics_engine</text>
<text xml:space="preserve" text-anchor="middle" x="731.88" y="-86.4" font-family="Helvetica,sans-Serif" font-size="13.00">thresholds + temp&#45;comp weed</text>
<text xml:space="preserve" text-anchor="middle" x="731.88" y="-72.9" font-family="Helvetica,sans-Serif" font-size="13.00">+ JOINT correlated fusion</text>
</g>
<!-- smooth&#45;&gt;engine -->
<g id="edge3" class="edge">
<title>smooth&#45;&gt;engine</title>
<path fill="none" stroke="#555555" stroke-width="1.4" d="M512.61,-65.8C544.96,-69.68 584.94,-74.48 621.81,-78.91"/>
<polygon fill="#555555" stroke="#555555" stroke-width="1.4" points="621.21,-82.36 631.56,-80.08 622.05,-75.41 621.21,-82.36"/>
</g>
<!-- teda -->
<g id="node6" class="node">
<title>teda</title>
<path fill="#fff3e0" stroke="#e65100" stroke-width="2.2" d="M805.12,-50C805.12,-50 658.62,-50 658.62,-50 652.62,-50 646.62,-44 646.62,-38 646.62,-38 646.62,-12 646.62,-12 646.62,-6 652.62,0 658.62,0 658.62,0 805.12,0 805.12,0 811.12,0 817.12,-6 817.12,-12 817.12,-12 817.12,-38 817.12,-38 817.12,-44 811.12,-50 805.12,-50"/>
<text xml:space="preserve" text-anchor="middle" x="731.88" y="-33.65" font-family="Helvetica,sans-Serif" font-size="13.00">adaptive_anomaly ★</text>
<text xml:space="preserve" text-anchor="middle" x="731.88" y="-18.65" font-family="Helvetica,sans-Serif" font-size="13.00">TEDA self&#45;tuning anomaly</text>
<text xml:space="preserve" text-anchor="middle" x="731.88" y="-5.15" font-family="Helvetica,sans-Serif" font-size="13.00">(3 DSP multipliers)</text>
</g>
<!-- smooth&#45;&gt;teda -->
<g id="edge4" class="edge">
<title>smooth&#45;&gt;teda</title>
<path fill="none" stroke="#555555" stroke-width="1.4" d="M512.61,-50.43C548.51,-46.25 593.8,-40.97 633.82,-36.31"/>
<polygon fill="#555555" stroke="#555555" stroke-width="1.4" points="634.14,-39.79 643.67,-35.16 633.33,-32.84 634.14,-39.79"/>
<text xml:space="preserve" text-anchor="middle" x="573.12" y="-50" font-family="Helvetica,sans-Serif" font-size="10.00">same smoothed set</text>
</g>
<!-- outp -->
<g id="node5" class="node">
<title>outp</title>
<path fill="#e3f2fd" stroke="black" stroke-width="1.4" d="M1018,-82.25C1018,-82.25 914.25,-82.25 914.25,-82.25 908.25,-82.25 902.25,-76.25 902.25,-70.25 902.25,-70.25 902.25,-45.75 902.25,-45.75 902.25,-39.75 908.25,-33.75 914.25,-33.75 914.25,-33.75 1018,-33.75 1018,-33.75 1024,-33.75 1030,-39.75 1030,-45.75 1030,-45.75 1030,-70.25 1030,-70.25 1030,-76.25 1024,-82.25 1018,-82.25"/>
<text xml:space="preserve" text-anchor="middle" x="966.12" y="-65.9" font-family="Helvetica,sans-Serif" font-size="13.00">output_analytics</text>
<text xml:space="preserve" text-anchor="middle" x="966.12" y="-52.4" font-family="Helvetica,sans-Serif" font-size="13.00">actuator / alert bus</text>
<text xml:space="preserve" text-anchor="middle" x="966.12" y="-38.9" font-family="Helvetica,sans-Serif" font-size="13.00">(pump hysteresis)</text>
</g>
<!-- engine&#45;&gt;outp -->
<g id="edge5" class="edge">
<title>engine&#45;&gt;outp</title>
<path fill="none" stroke="#555555" stroke-width="1.4" d="M830.02,-77.78C850,-74.85 870.75,-71.82 889.82,-69.02"/>
<polygon fill="#555555" stroke="#555555" stroke-width="1.4" points="890.28,-72.49 899.67,-67.58 889.26,-65.57 890.28,-72.49"/>
</g>
<!-- comms -->
<g id="node7" class="node">
<title>comms</title>
<path fill="#fff3e0" stroke="#e65100" stroke-width="2.2" d="M1286.38,-134C1286.38,-134 1146.62,-134 1146.62,-134 1140.62,-134 1134.62,-128 1134.62,-122 1134.62,-122 1134.62,-96 1134.62,-96 1134.62,-90 1140.62,-84 1146.62,-84 1146.62,-84 1286.38,-84 1286.38,-84 1292.38,-84 1298.38,-90 1298.38,-96 1298.38,-96 1298.38,-122 1298.38,-122 1298.38,-128 1292.38,-134 1286.38,-134"/>
<text xml:space="preserve" text-anchor="middle" x="1216.5" y="-117.65" font-family="Helvetica,sans-Serif" font-size="13.00">comms_tx ★</text>
<text xml:space="preserve" text-anchor="middle" x="1216.5" y="-102.65" font-family="Helvetica,sans-Serif" font-size="13.00">Tier&#45;2 caretaker radio</text>
<text xml:space="preserve" text-anchor="middle" x="1216.5" y="-89.15" font-family="Helvetica,sans-Serif" font-size="13.00">(sparse, event&#45;triggered)</text>
</g>
<!-- outp&#45;&gt;comms -->
<g id="edge8" class="edge">
<title>outp&#45;&gt;comms</title>
<path fill="none" stroke="#555555" stroke-width="1.4" d="M1030.44,-71C1058.35,-76.73 1091.71,-83.58 1122.37,-89.88"/>
<polygon fill="#555555" stroke="#555555" stroke-width="1.4" points="1121.4,-93.25 1131.9,-91.83 1122.81,-86.39 1121.4,-93.25"/>
<text xml:space="preserve" text-anchor="middle" x="1082.12" y="-89.82" font-family="Helvetica,sans-Serif" font-size="10.00">qualifying event</text>
</g>
<!-- tier1 -->
<g id="node8" class="node">
<title>tier1</title>
<path fill="#e8f5e9" stroke="#2e7d32" stroke-width="1.4" d="M1286.75,-66.25C1286.75,-66.25 1146.25,-66.25 1146.25,-66.25 1140.25,-66.25 1134.25,-60.25 1134.25,-54.25 1134.25,-54.25 1134.25,-29.75 1134.25,-29.75 1134.25,-23.75 1140.25,-17.75 1146.25,-17.75 1146.25,-17.75 1286.75,-17.75 1286.75,-17.75 1292.75,-17.75 1298.75,-23.75 1298.75,-29.75 1298.75,-29.75 1298.75,-54.25 1298.75,-54.25 1298.75,-60.25 1292.75,-66.25 1286.75,-66.25"/>
<text xml:space="preserve" text-anchor="middle" x="1216.5" y="-49.9" font-family="Helvetica,sans-Serif" font-size="13.00">TIER 1 — local actuation</text>
<text xml:space="preserve" text-anchor="middle" x="1216.5" y="-36.4" font-family="Helvetica,sans-Serif" font-size="13.00">pump · doser · alerts</text>
<text xml:space="preserve" text-anchor="middle" x="1216.5" y="-22.9" font-family="Helvetica,sans-Serif" font-size="13.00">(on&#45;device, instant)</text>
</g>
<!-- outp&#45;&gt;tier1 -->
<g id="edge7" class="edge">
<title>outp&#45;&gt;tier1</title>
<path fill="none" stroke="#555555" stroke-width="1.4" d="M1030.44,-53.92C1058.23,-52.13 1091.42,-49.99 1121.97,-48.03"/>
<polygon fill="#555555" stroke="#555555" stroke-width="1.4" points="1122.11,-51.52 1131.86,-47.39 1121.66,-44.54 1122.11,-51.52"/>
</g>
<!-- teda&#45;&gt;outp -->
<g id="edge6" class="edge">
<title>teda&#45;&gt;outp</title>
<path fill="none" stroke="#e65100" stroke-width="1.4" d="M818.04,-37.1C841.63,-40.45 867.06,-44.07 890.03,-47.33"/>
<polygon fill="#e65100" stroke="#e65100" stroke-width="1.4" points="889.31,-50.76 899.7,-48.7 890.29,-43.83 889.31,-50.76"/>
<text xml:space="preserve" text-anchor="middle" x="865.88" y="-48.13" font-family="Helvetica,sans-Serif" font-size="10.00">anomaly</text>
</g>
<!-- tier2 -->
<g id="node9" class="node">
<title>tier2</title>
<path fill="#e8f5e9" stroke="#2e7d32" stroke-width="1.4" d="M1516,-134.38C1516,-134.38 1347.75,-134.38 1347.75,-134.38 1341.75,-134.38 1335.75,-128.38 1335.75,-122.38 1335.75,-122.38 1335.75,-95.62 1335.75,-95.62 1335.75,-89.62 1341.75,-83.62 1347.75,-83.62 1347.75,-83.62 1516,-83.62 1516,-83.62 1522,-83.62 1528,-89.62 1528,-95.62 1528,-95.62 1528,-122.38 1528,-122.38 1528,-128.38 1522,-134.38 1516,-134.38"/>
<text xml:space="preserve" text-anchor="middle" x="1431.88" y="-118.03" font-family="Helvetica,sans-Serif" font-size="13.00">TIER 2 — human alert</text>
<text xml:space="preserve" text-anchor="middle" x="1431.88" y="-104.53" font-family="Helvetica,sans-Serif" font-size="13.00">1 tiny packet + ACTION</text>
<text xml:space="preserve" text-anchor="middle" x="1431.88" y="-91.03" font-family="Helvetica,sans-Serif" font-size="13.00">→ caretaker (~97% fewer TX)</text>
</g>
<!-- comms&#45;&gt;tier2 -->
<g id="edge9" class="edge">
<title>comms&#45;&gt;tier2</title>
<path fill="none" stroke="#e65100" stroke-width="1.4" d="M1299.39,-109C1307.28,-109 1315.37,-109 1323.46,-109"/>
<polygon fill="#e65100" stroke="#e65100" stroke-width="1.4" points="1323.19,-112.5 1333.19,-109 1323.19,-105.5 1323.19,-112.5"/>
</g>
</g>
</svg>
