<?xml version="1.0" encoding="UTF-8" standalone="no"?>
<!DOCTYPE svg PUBLIC "-//W3C//DTD SVG 1.1//EN"
 "http://www.w3.org/Graphics/SVG/1.1/DTD/svg11.dtd">
<!-- Generated by graphviz version 15.1.0 (20260618.0150)
 -->
<!-- Title: pump_fsm Pages: 1 -->
<svg width="570pt" height="184pt"
 viewBox="0.00 0.00 570.00 184.00" xmlns="http://www.w3.org/2000/svg" xmlns:xlink="http://www.w3.org/1999/xlink">
<g id="graph0" class="graph" transform="scale(1 1) rotate(0) translate(4 180)">
<title>pump_fsm</title>
<polygon fill="white" stroke="none" points="-4,4 -4,-180 566,-180 566,4 -4,4"/>
<text xml:space="preserve" text-anchor="middle" x="281" y="-155.85" font-family="Helvetica,sans-Serif" font-size="17.00">Pump&#45;hysteresis FSM (Moore) &#160;— &#160;the 200..350 band kills pump chatter</text>
<!-- start -->
<g id="node1" class="node">
<title>start</title>
<ellipse fill="#2e7d32" stroke="#2e7d32" stroke-width="1.8" cx="75.12" cy="-54" rx="4.32" ry="4.32"/>
</g>
<!-- OFF -->
<g id="node2" class="node">
<title>OFF</title>
<ellipse fill="#e8f5e9" stroke="#2e7d32" stroke-width="1.8" cx="184.44" cy="-54" rx="54" ry="54"/>
<text xml:space="preserve" text-anchor="middle" x="184.44" y="-55.15" font-family="Helvetica,sans-Serif" font-size="13.00">PUMP_OFF</text>
<text xml:space="preserve" text-anchor="middle" x="184.44" y="-41.65" font-family="Helvetica,sans-Serif" font-size="13.00">(pump_on = 0)</text>
</g>
<!-- start&#45;&gt;OFF -->
<g id="edge1" class="edge">
<title>start&#45;&gt;OFF</title>
<path fill="none" stroke="#2e7d32" stroke-width="1.6" d="M80.2,-54C86.97,-54 101.39,-54 117.36,-54"/>
<polygon fill="#2e7d32" stroke="#2e7d32" stroke-width="1.6" points="117.36,-57.5 127.36,-54 117.36,-50.5 117.36,-57.5"/>
<text xml:space="preserve" text-anchor="middle" x="104.94" y="-55.55" font-family="Helvetica,sans-Serif" font-size="11.00" fill="#2e7d32"> rst</text>
</g>
<!-- OFF&#45;&gt;OFF -->
<g id="edge4" class="edge">
<title>OFF&#45;&gt;OFF</title>
<path fill="none" stroke="#444444" stroke-width="1.6" d="M170.02,-106.74C171.48,-117.93 176.29,-126 184.44,-126 189.29,-126 192.95,-123.15 195.43,-118.5"/>
<polygon fill="#444444" stroke="#444444" stroke-width="1.6" points="198.74,-119.65 198.19,-109.07 192.02,-117.68 198.74,-119.65"/>
<text xml:space="preserve" text-anchor="middle" x="184.44" y="-139.55" font-family="Helvetica,sans-Serif" font-size="11.00">avg_moisture ≥ 200</text>
<text xml:space="preserve" text-anchor="middle" x="184.44" y="-127.55" font-family="Helvetica,sans-Serif" font-size="11.00">(hold OFF)</text>
</g>
<!-- ON -->
<g id="node3" class="node">
<title>ON</title>
<ellipse fill="#e3f2fd" stroke="#1565c0" stroke-width="1.8" cx="437.19" cy="-54" rx="54" ry="54"/>
<text xml:space="preserve" text-anchor="middle" x="437.19" y="-55.15" font-family="Helvetica,sans-Serif" font-size="13.00">PUMP_ON</text>
<text xml:space="preserve" text-anchor="middle" x="437.19" y="-41.65" font-family="Helvetica,sans-Serif" font-size="13.00">(pump_on = 1)</text>
</g>
<!-- OFF&#45;&gt;ON -->
<g id="edge2" class="edge">
<title>OFF&#45;&gt;ON</title>
<path fill="none" stroke="#1565c0" stroke-width="1.6" d="M238.94,-55.67C244.85,-55.8 250.77,-55.92 256.44,-56 304.77,-56.68 316.87,-56.68 365.19,-56 366.88,-55.98 368.59,-55.95 370.31,-55.92"/>
<polygon fill="#1565c0" stroke="#1565c0" stroke-width="1.6" points="370.35,-59.42 380.28,-55.72 370.21,-52.42 370.35,-59.42"/>
<text xml:space="preserve" text-anchor="middle" x="310.82" y="-70.06" font-family="Helvetica,sans-Serif" font-size="11.00" fill="#1565c0"> &#160;dry</text>
<text xml:space="preserve" text-anchor="middle" x="310.82" y="-58.06" font-family="Helvetica,sans-Serif" font-size="11.00" fill="#1565c0"> &#160;(avg_moisture &lt; 200)</text>
</g>
<!-- ON&#45;&gt;OFF -->
<g id="edge3" class="edge">
<title>ON&#45;&gt;OFF</title>
<path fill="none" stroke="#c62828" stroke-width="1.6" d="M386.38,-33.29C379.37,-31.11 372.17,-29.24 365.19,-28 317.6,-19.56 304.04,-19.56 256.44,-28 253.39,-28.54 250.3,-29.2 247.19,-29.96"/>
<polygon fill="#c62828" stroke="#c62828" stroke-width="1.6" points="246.29,-26.58 237.6,-32.64 248.17,-33.32 246.29,-26.58"/>
<text xml:space="preserve" text-anchor="middle" x="310.82" y="-41.55" font-family="Helvetica,sans-Serif" font-size="11.00" fill="#c62828"> &#160;recovered</text>
<text xml:space="preserve" text-anchor="middle" x="310.82" y="-29.55" font-family="Helvetica,sans-Serif" font-size="11.00" fill="#c62828"> &#160;(avg_moisture &gt; 350)</text>
</g>
<!-- ON&#45;&gt;ON -->
<g id="edge5" class="edge">
<title>ON&#45;&gt;ON</title>
<path fill="none" stroke="#444444" stroke-width="1.6" d="M413.74,-103.47C415.19,-116.31 423,-126 437.19,-126 446.73,-126 453.39,-121.63 457.17,-114.86"/>
<polygon fill="#444444" stroke="#444444" stroke-width="1.6" points="460.37,-116.37 459.94,-105.78 453.67,-114.33 460.37,-116.37"/>
<text xml:space="preserve" text-anchor="middle" x="437.19" y="-139.55" font-family="Helvetica,sans-Serif" font-size="11.00">avg_moisture ≤ 350</text>
<text xml:space="preserve" text-anchor="middle" x="437.19" y="-127.55" font-family="Helvetica,sans-Serif" font-size="11.00">(hold ON)</text>
</g>
</g>
</svg>
