<svg xmlns="http://www.w3.org/2000/svg" width="1234" height="456" viewBox="0 0 1234 456" font-family="Menlo,Consolas,monospace">
<rect width="1234" height="456" fill="#0d1117"/>
<text x="18" y="30" fill="#e6edf3" font-size="21" font-weight="700" font-family="Helvetica,Arial">Waveform 1 — TEDA anomaly → Tier-2 caretaker radio (event-triggered)</text>
<text x="18" y="52" fill="#8b98a5" font-size="13" font-family="Helvetica,Arial">The chip's self-tuning detector flags a channel, then transmits ONE 64-bit packet. This is the ~97%-fewer-TX moment.</text>
<rect x="541.3" y="92" width="222.2" height="320" fill="#f0b429" opacity="0.14"/>
<line x1="263.6" y1="92" x2="263.6" y2="412" stroke="#1c2530" stroke-width="1"/>
<line x1="374.7" y1="92" x2="374.7" y2="412" stroke="#1c2530" stroke-width="1"/>
<line x1="485.8" y1="92" x2="485.8" y2="412" stroke="#1c2530" stroke-width="1"/>
<line x1="596.9" y1="92" x2="596.9" y2="412" stroke="#1c2530" stroke-width="1"/>
<line x1="708.0" y1="92" x2="708.0" y2="412" stroke="#1c2530" stroke-width="1"/>
<line x1="819.1" y1="92" x2="819.1" y2="412" stroke="#1c2530" stroke-width="1"/>
<line x1="930.2" y1="92" x2="930.2" y2="412" stroke="#1c2530" stroke-width="1"/>
<line x1="1041.3" y1="92" x2="1041.3" y2="412" stroke="#1c2530" stroke-width="1"/>
<line x1="1152.4" y1="92" x2="1152.4" y2="412" stroke="#1c2530" stroke-width="1"/>
<line x1="208" y1="92" x2="1208" y2="92" stroke="#161b22" stroke-width="1"/>
<text x="198" y="116.0" fill="#e6edf3" font-size="13" text-anchor="end">clk</text>
<path d="M 208.0 99.0 L 263.6 99.0 L 263.6 123.0 L 319.1 123.0 L 319.1 99.0 L 374.7 99.0 L 374.7 123.0 L 430.2 123.0 L 430.2 99.0 L 485.8 99.0 L 485.8 123.0 L 541.3 123.0 L 541.3 99.0 L 596.9 99.0 L 596.9 123.0 L 652.4 123.0 L 652.4 99.0 L 708.0 99.0 L 708.0 123.0 L 763.6 123.0 L 763.6 99.0 L 819.1 99.0 L 819.1 123.0 L 874.7 123.0 L 874.7 99.0 L 930.2 99.0 L 930.2 123.0 L 985.8 123.0 L 985.8 99.0 L 1041.3 99.0 L 1041.3 123.0 L 1096.9 123.0 L 1096.9 99.0 L 1152.4 99.0 L 1152.4 123.0 L 1208.0 123.0 L 1208.0 99.0 L 1208.0 99.0" fill="none" stroke="#39d353" stroke-width="2"/>
<line x1="208" y1="132" x2="1208" y2="132" stroke="#161b22" stroke-width="1"/>
<text x="198" y="156.0" fill="#7ee787" font-size="13" text-anchor="end">out_valid</text>
<path d="M 208.0 139.0 L 1208.0 139.0" fill="none" stroke="#39d353" stroke-width="2"/>
<line x1="208" y1="172" x2="1208" y2="172" stroke="#161b22" stroke-width="1"/>
<text x="198" y="196.0" fill="#e6edf3" font-size="13" text-anchor="end">avg_temp</text>
<path d="M 211.0 179.0 L 316.1 179.0" stroke="#58a6ff" stroke-width="1.6" fill="none"/>
<path d="M 211.0 203.0 L 316.1 203.0" stroke="#58a6ff" stroke-width="1.6" fill="none"/>
<path d="M 208.0 192.0 L 211.0 179.0 M 208.0 192.0 L 211.0 203.0" stroke="#58a6ff" stroke-width="1.6" fill="none"/>
<text x="263.6" y="196.0" fill="#e6edf3" font-size="12" text-anchor="middle">360</text>
<path d="M 322.1 179.0 L 427.2 179.0" stroke="#58a6ff" stroke-width="1.6" fill="none"/>
<path d="M 322.1 203.0 L 427.2 203.0" stroke="#58a6ff" stroke-width="1.6" fill="none"/>
<path d="M 319.1 192.0 L 322.1 179.0 M 319.1 192.0 L 322.1 203.0" stroke="#58a6ff" stroke-width="1.6" fill="none"/>
<text x="374.7" y="196.0" fill="#e6edf3" font-size="12" text-anchor="middle">343</text>
<path d="M 433.2 179.0 L 538.3 179.0" stroke="#58a6ff" stroke-width="1.6" fill="none"/>
<path d="M 433.2 203.0 L 538.3 203.0" stroke="#58a6ff" stroke-width="1.6" fill="none"/>
<path d="M 430.2 192.0 L 433.2 179.0 M 430.2 192.0 L 433.2 203.0" stroke="#58a6ff" stroke-width="1.6" fill="none"/>
<text x="485.8" y="196.0" fill="#e6edf3" font-size="12" text-anchor="middle">326</text>
<path d="M 544.3 179.0 L 649.4 179.0" stroke="#58a6ff" stroke-width="1.6" fill="none"/>
<path d="M 544.3 203.0 L 649.4 203.0" stroke="#58a6ff" stroke-width="1.6" fill="none"/>
<path d="M 541.3 192.0 L 544.3 179.0 M 541.3 192.0 L 544.3 203.0" stroke="#58a6ff" stroke-width="1.6" fill="none"/>
<text x="596.9" y="196.0" fill="#e6edf3" font-size="12" text-anchor="middle">310</text>
<path d="M 655.4 179.0 L 760.6 179.0" stroke="#58a6ff" stroke-width="1.6" fill="none"/>
<path d="M 655.4 203.0 L 760.6 203.0" stroke="#58a6ff" stroke-width="1.6" fill="none"/>
<path d="M 652.4 192.0 L 655.4 179.0 M 652.4 192.0 L 655.4 203.0" stroke="#58a6ff" stroke-width="1.6" fill="none"/>
<text x="708.0" y="196.0" fill="#e6edf3" font-size="12" text-anchor="middle">292</text>
<path d="M 766.6 179.0 L 871.7 179.0" stroke="#58a6ff" stroke-width="1.6" fill="none"/>
<path d="M 766.6 203.0 L 871.7 203.0" stroke="#58a6ff" stroke-width="1.6" fill="none"/>
<path d="M 763.6 192.0 L 766.6 179.0 M 763.6 192.0 L 766.6 203.0" stroke="#58a6ff" stroke-width="1.6" fill="none"/>
<text x="819.1" y="196.0" fill="#e6edf3" font-size="12" text-anchor="middle">276</text>
<path d="M 877.7 179.0 L 982.8 179.0" stroke="#58a6ff" stroke-width="1.6" fill="none"/>
<path d="M 877.7 203.0 L 982.8 203.0" stroke="#58a6ff" stroke-width="1.6" fill="none"/>
<path d="M 874.7 192.0 L 877.7 179.0 M 874.7 192.0 L 877.7 203.0" stroke="#58a6ff" stroke-width="1.6" fill="none"/>
<text x="930.2" y="196.0" fill="#e6edf3" font-size="12" text-anchor="middle">258</text>
<path d="M 988.8 179.0 L 1093.9 179.0" stroke="#58a6ff" stroke-width="1.6" fill="none"/>
<path d="M 988.8 203.0 L 1093.9 203.0" stroke="#58a6ff" stroke-width="1.6" fill="none"/>
<path d="M 985.8 192.0 L 988.8 179.0 M 985.8 192.0 L 988.8 203.0" stroke="#58a6ff" stroke-width="1.6" fill="none"/>
<text x="1041.3" y="196.0" fill="#e6edf3" font-size="12" text-anchor="middle">252</text>
<path d="M 1099.9 179.0 L 1205.0 179.0" stroke="#58a6ff" stroke-width="1.6" fill="none"/>
<path d="M 1099.9 203.0 L 1205.0 203.0" stroke="#58a6ff" stroke-width="1.6" fill="none"/>
<path d="M 1096.9 192.0 L 1099.9 179.0 M 1096.9 192.0 L 1099.9 203.0" stroke="#58a6ff" stroke-width="1.6" fill="none"/>
<text x="1152.4" y="196.0" fill="#e6edf3" font-size="12" text-anchor="middle">250</text>
<path d="M 1208.0 192.0 L 1205.0 179.0 M 1208.0 192.0 L 1205.0 203.0" stroke="#58a6ff" stroke-width="1.6" fill="none"/>
<line x1="208" y1="212" x2="1208" y2="212" stroke="#161b22" stroke-width="1"/>
<text x="198" y="236.0" fill="#e6edf3" font-size="13" text-anchor="end">anom_ch[2:0]</text>
<path d="M 211.0 219.0 L 538.3 219.0" stroke="#58a6ff" stroke-width="1.6" fill="none"/>
<path d="M 211.0 243.0 L 538.3 243.0" stroke="#58a6ff" stroke-width="1.6" fill="none"/>
<path d="M 208.0 232.0 L 211.0 219.0 M 208.0 232.0 L 211.0 243.0" stroke="#58a6ff" stroke-width="1.6" fill="none"/>
<text x="374.7" y="236.0" fill="#e6edf3" font-size="12" text-anchor="middle">0</text>
<path d="M 544.3 219.0 L 871.7 219.0" stroke="#58a6ff" stroke-width="1.6" fill="none"/>
<path d="M 544.3 243.0 L 871.7 243.0" stroke="#58a6ff" stroke-width="1.6" fill="none"/>
<path d="M 541.3 232.0 L 544.3 219.0 M 541.3 232.0 L 544.3 243.0" stroke="#58a6ff" stroke-width="1.6" fill="none"/>
<text x="708.0" y="236.0" fill="#e6edf3" font-size="12" text-anchor="middle">10</text>
<path d="M 877.7 219.0 L 1205.0 219.0" stroke="#58a6ff" stroke-width="1.6" fill="none"/>
<path d="M 877.7 243.0 L 1205.0 243.0" stroke="#58a6ff" stroke-width="1.6" fill="none"/>
<path d="M 874.7 232.0 L 877.7 219.0 M 874.7 232.0 L 877.7 243.0" stroke="#58a6ff" stroke-width="1.6" fill="none"/>
<text x="1041.3" y="236.0" fill="#e6edf3" font-size="12" text-anchor="middle">0</text>
<path d="M 1208.0 232.0 L 1205.0 219.0 M 1208.0 232.0 L 1205.0 243.0" stroke="#58a6ff" stroke-width="1.6" fill="none"/>
<line x1="208" y1="252" x2="1208" y2="252" stroke="#161b22" stroke-width="1"/>
<text x="198" y="276.0" fill="#7ee787" font-size="13" text-anchor="end">alert_anomaly</text>
<path d="M 208.0 283.0 L 541.3 283.0 L 541.3 259.0 L 874.7 259.0 L 874.7 283.0 L 1208.0 283.0" fill="none" stroke="#39d353" stroke-width="2"/>
<line x1="208" y1="292" x2="1208" y2="292" stroke="#161b22" stroke-width="1"/>
<text x="198" y="316.0" fill="#7ee787" font-size="13" text-anchor="end">msg_valid  → TX</text>
<path d="M 208.0 323.0 L 652.4 323.0 L 652.4 299.0 L 763.6 299.0 L 763.6 323.0 L 1208.0 323.0" fill="none" stroke="#39d353" stroke-width="2"/>
<line x1="208" y1="332" x2="1208" y2="332" stroke="#161b22" stroke-width="1"/>
<text x="198" y="356.0" fill="#e6edf3" font-size="13" text-anchor="end">msg_count</text>
<path d="M 211.0 339.0 L 649.4 339.0" stroke="#58a6ff" stroke-width="1.6" fill="none"/>
<path d="M 211.0 363.0 L 649.4 363.0" stroke="#58a6ff" stroke-width="1.6" fill="none"/>
<path d="M 208.0 352.0 L 211.0 339.0 M 208.0 352.0 L 211.0 363.0" stroke="#58a6ff" stroke-width="1.6" fill="none"/>
<text x="430.2" y="356.0" fill="#e6edf3" font-size="12" text-anchor="middle">4</text>
<path d="M 655.4 339.0 L 1205.0 339.0" stroke="#58a6ff" stroke-width="1.6" fill="none"/>
<path d="M 655.4 363.0 L 1205.0 363.0" stroke="#58a6ff" stroke-width="1.6" fill="none"/>
<path d="M 652.4 352.0 L 655.4 339.0 M 652.4 352.0 L 655.4 363.0" stroke="#58a6ff" stroke-width="1.6" fill="none"/>
<text x="930.2" y="356.0" fill="#e6edf3" font-size="12" text-anchor="middle">5</text>
<path d="M 1208.0 352.0 L 1205.0 339.0 M 1208.0 352.0 L 1205.0 363.0" stroke="#58a6ff" stroke-width="1.6" fill="none"/>
<line x1="208" y1="372" x2="1208" y2="372" stroke="#161b22" stroke-width="1"/>
<text x="198" y="396.0" fill="#f0b429" font-size="13" text-anchor="end">alert_packet</text>
<path d="M 211.0 379.0 L 649.4 379.0" stroke="#f0b429" stroke-width="1.6" fill="none"/>
<path d="M 211.0 403.0 L 649.4 403.0" stroke="#f0b429" stroke-width="1.6" fill="none"/>
<path d="M 208.0 392.0 L 211.0 379.0 M 208.0 392.0 L 211.0 403.0" stroke="#f0b429" stroke-width="1.6" fill="none"/>
<text x="430.2" y="396.0" fill="#e6edf3" font-size="12" text-anchor="middle">0x243CD00000000098</text>
<path d="M 655.4 379.0 L 1205.0 379.0" stroke="#f0b429" stroke-width="1.6" fill="none"/>
<path d="M 655.4 403.0 L 1205.0 403.0" stroke="#f0b429" stroke-width="1.6" fill="none"/>
<path d="M 652.4 392.0 L 655.4 379.0 M 652.4 392.0 L 655.4 403.0" stroke="#f0b429" stroke-width="1.6" fill="none"/>
<text x="930.2" y="396.0" fill="#e6edf3" font-size="12" text-anchor="middle">0x372FF000000000C5</text>
<path d="M 1208.0 392.0 L 1205.0 379.0 M 1208.0 392.0 L 1205.0 403.0" stroke="#f0b429" stroke-width="1.6" fill="none"/>
<line x1="208" y1="412" x2="1208" y2="412" stroke="#161b22" stroke-width="1"/>
<line x1="208" y1="92" x2="208" y2="412" stroke="#30363d" stroke-width="1.4"/>
<line x1="263.6" y1="412" x2="263.6" y2="417" stroke="#8b98a5" stroke-width="1"/>
<text x="263.6" y="432" fill="#8b98a5" font-size="10" text-anchor="middle">2000</text>
<line x1="374.7" y1="412" x2="374.7" y2="417" stroke="#8b98a5" stroke-width="1"/>
<text x="374.7" y="432" fill="#8b98a5" font-size="10" text-anchor="middle">2010</text>
<line x1="485.8" y1="412" x2="485.8" y2="417" stroke="#8b98a5" stroke-width="1"/>
<text x="485.8" y="432" fill="#8b98a5" font-size="10" text-anchor="middle">2020</text>
<line x1="596.9" y1="412" x2="596.9" y2="417" stroke="#8b98a5" stroke-width="1"/>
<text x="596.9" y="432" fill="#8b98a5" font-size="10" text-anchor="middle">2030</text>
<line x1="708.0" y1="412" x2="708.0" y2="417" stroke="#8b98a5" stroke-width="1"/>
<text x="708.0" y="432" fill="#8b98a5" font-size="10" text-anchor="middle">2040</text>
<line x1="819.1" y1="412" x2="819.1" y2="417" stroke="#8b98a5" stroke-width="1"/>
<text x="819.1" y="432" fill="#8b98a5" font-size="10" text-anchor="middle">2050</text>
<line x1="930.2" y1="412" x2="930.2" y2="417" stroke="#8b98a5" stroke-width="1"/>
<text x="930.2" y="432" fill="#8b98a5" font-size="10" text-anchor="middle">2060</text>
<line x1="1041.3" y1="412" x2="1041.3" y2="417" stroke="#8b98a5" stroke-width="1"/>
<text x="1041.3" y="432" fill="#8b98a5" font-size="10" text-anchor="middle">2070</text>
<line x1="1152.4" y1="412" x2="1152.4" y2="417" stroke="#8b98a5" stroke-width="1"/>
<text x="1152.4" y="432" fill="#8b98a5" font-size="10" text-anchor="middle">2080</text>
<text x="1208" y="450" fill="#6a7581" font-size="11" text-anchor="end">time (ns) — 1 clk = 10 ns</text>
<line x1="541.3" y1="84" x2="541.3" y2="412" stroke="#f85149" stroke-width="1.4" stroke-dasharray="4 3"/>
<rect x="546.3" y="68" width="103" height="19" rx="3" fill="#f85149"/>
<text x="552.3" y="82.0" fill="#0d1117" font-size="12" font-weight="700" font-family="Helvetica,Arial">TEDA flags ch</text>
<line x1="652.4" y1="84" x2="652.4" y2="412" stroke="#f0b429" stroke-width="1.4" stroke-dasharray="4 3"/>
<rect x="657.4" y="68" width="68" height="19" rx="3" fill="#f0b429"/>
<text x="663.4" y="82.0" fill="#0d1117" font-size="12" font-weight="700" font-family="Helvetica,Arial">radio TX</text>
</svg>