<svg xmlns="http://www.w3.org/2000/svg" width="1234" height="416" viewBox="0 0 1234 416" font-family="Menlo,Consolas,monospace">
<rect width="1234" height="416" fill="#0d1117"/>
<text x="18" y="30" fill="#e6edf3" font-size="21" font-weight="700" font-family="Helvetica,Arial">Waveform 2 — Tier-1 closed-loop: moisture smoothing → pump hysteresis (no human)</text>
<text x="18" y="52" fill="#8b98a5" font-size="13" font-family="Helvetica,Arial">Raw moisture is noisy; the divider-free moving average smooths it; the pump engages locally with hysteresis.</text>
<line x1="246.5" y1="92" x2="246.5" y2="372" stroke="#1c2530" stroke-width="1"/>
<line x1="323.4" y1="92" x2="323.4" y2="372" stroke="#1c2530" stroke-width="1"/>
<line x1="400.3" y1="92" x2="400.3" y2="372" stroke="#1c2530" stroke-width="1"/>
<line x1="477.2" y1="92" x2="477.2" y2="372" stroke="#1c2530" stroke-width="1"/>
<line x1="554.2" y1="92" x2="554.2" y2="372" stroke="#1c2530" stroke-width="1"/>
<line x1="631.1" y1="92" x2="631.1" y2="372" stroke="#1c2530" stroke-width="1"/>
<line x1="708.0" y1="92" x2="708.0" y2="372" stroke="#1c2530" stroke-width="1"/>
<line x1="784.9" y1="92" x2="784.9" y2="372" stroke="#1c2530" stroke-width="1"/>
<line x1="861.8" y1="92" x2="861.8" y2="372" stroke="#1c2530" stroke-width="1"/>
<line x1="938.8" y1="92" x2="938.8" y2="372" stroke="#1c2530" stroke-width="1"/>
<line x1="1015.7" y1="92" x2="1015.7" y2="372" stroke="#1c2530" stroke-width="1"/>
<line x1="1092.6" y1="92" x2="1092.6" y2="372" stroke="#1c2530" stroke-width="1"/>
<line x1="1169.5" y1="92" x2="1169.5" y2="372" stroke="#1c2530" stroke-width="1"/>
<line x1="208" y1="92" x2="1208" y2="92" stroke="#161b22" stroke-width="1"/>
<text x="198" y="116.0" fill="#e6edf3" font-size="13" text-anchor="end">clk</text>
<path d="M 208.0 99.0 L 246.5 99.0 L 246.5 123.0 L 284.9 123.0 L 284.9 99.0 L 323.4 99.0 L 323.4 123.0 L 361.8 123.0 L 361.8 99.0 L 400.3 99.0 L 400.3 123.0 L 438.8 123.0 L 438.8 99.0 L 477.2 99.0 L 477.2 123.0 L 515.7 123.0 L 515.7 99.0 L 554.2 99.0 L 554.2 123.0 L 592.6 123.0 L 592.6 99.0 L 631.1 99.0 L 631.1 123.0 L 669.5 123.0 L 669.5 99.0 L 708.0 99.0 L 708.0 123.0 L 746.5 123.0 L 746.5 99.0 L 784.9 99.0 L 784.9 123.0 L 823.4 123.0 L 823.4 99.0 L 861.8 99.0 L 861.8 123.0 L 900.3 123.0 L 900.3 99.0 L 938.8 99.0 L 938.8 123.0 L 977.2 123.0 L 977.2 99.0 L 1015.7 99.0 L 1015.7 123.0 L 1054.2 123.0 L 1054.2 99.0 L 1092.6 99.0 L 1092.6 123.0 L 1131.1 123.0 L 1131.1 99.0 L 1169.5 99.0 L 1169.5 123.0 L 1208.0 123.0 L 1208.0 99.0 L 1208.0 99.0" fill="none" stroke="#39d353" stroke-width="2"/>
<line x1="208" y1="132" x2="1208" y2="132" stroke="#161b22" stroke-width="1"/>
<text x="198" y="156.0" fill="#7ee787" font-size="13" text-anchor="end">out_valid</text>
<path d="M 208.0 139.0 L 1208.0 139.0" fill="none" stroke="#39d353" stroke-width="2"/>
<line x1="208" y1="172" x2="1208" y2="172" stroke="#161b22" stroke-width="1"/>
<text x="198" y="196.0" fill="#e6edf3" font-size="13" text-anchor="end">moisture (raw)</text>
<path d="M 211.0 179.0 L 281.9 179.0" stroke="#58a6ff" stroke-width="1.6" fill="none"/>
<path d="M 211.0 203.0 L 281.9 203.0" stroke="#58a6ff" stroke-width="1.6" fill="none"/>
<path d="M 208.0 192.0 L 211.0 179.0 M 208.0 192.0 L 211.0 203.0" stroke="#58a6ff" stroke-width="1.6" fill="none"/>
<text x="246.5" y="196.0" fill="#e6edf3" font-size="12" text-anchor="middle">218</text>
<path d="M 287.9 179.0 L 358.8 179.0" stroke="#58a6ff" stroke-width="1.6" fill="none"/>
<path d="M 287.9 203.0 L 358.8 203.0" stroke="#58a6ff" stroke-width="1.6" fill="none"/>
<path d="M 284.9 192.0 L 287.9 179.0 M 284.9 192.0 L 287.9 203.0" stroke="#58a6ff" stroke-width="1.6" fill="none"/>
<text x="323.4" y="196.0" fill="#e6edf3" font-size="12" text-anchor="middle">204</text>
<path d="M 364.8 179.0 L 435.8 179.0" stroke="#58a6ff" stroke-width="1.6" fill="none"/>
<path d="M 364.8 203.0 L 435.8 203.0" stroke="#58a6ff" stroke-width="1.6" fill="none"/>
<path d="M 361.8 192.0 L 364.8 179.0 M 361.8 192.0 L 364.8 203.0" stroke="#58a6ff" stroke-width="1.6" fill="none"/>
<text x="400.3" y="196.0" fill="#e6edf3" font-size="12" text-anchor="middle">190</text>
<path d="M 441.8 179.0 L 512.7 179.0" stroke="#58a6ff" stroke-width="1.6" fill="none"/>
<path d="M 441.8 203.0 L 512.7 203.0" stroke="#58a6ff" stroke-width="1.6" fill="none"/>
<path d="M 438.8 192.0 L 441.8 179.0 M 438.8 192.0 L 441.8 203.0" stroke="#58a6ff" stroke-width="1.6" fill="none"/>
<text x="477.2" y="196.0" fill="#e6edf3" font-size="12" text-anchor="middle">176</text>
<path d="M 518.7 179.0 L 589.6 179.0" stroke="#58a6ff" stroke-width="1.6" fill="none"/>
<path d="M 518.7 203.0 L 589.6 203.0" stroke="#58a6ff" stroke-width="1.6" fill="none"/>
<path d="M 515.7 192.0 L 518.7 179.0 M 515.7 192.0 L 518.7 203.0" stroke="#58a6ff" stroke-width="1.6" fill="none"/>
<text x="554.2" y="196.0" fill="#e6edf3" font-size="12" text-anchor="middle">162</text>
<path d="M 595.6 179.0 L 666.5 179.0" stroke="#58a6ff" stroke-width="1.6" fill="none"/>
<path d="M 595.6 203.0 L 666.5 203.0" stroke="#58a6ff" stroke-width="1.6" fill="none"/>
<path d="M 592.6 192.0 L 595.6 179.0 M 592.6 192.0 L 595.6 203.0" stroke="#58a6ff" stroke-width="1.6" fill="none"/>
<text x="631.1" y="196.0" fill="#e6edf3" font-size="12" text-anchor="middle">148</text>
<path d="M 672.5 179.0 L 743.5 179.0" stroke="#58a6ff" stroke-width="1.6" fill="none"/>
<path d="M 672.5 203.0 L 743.5 203.0" stroke="#58a6ff" stroke-width="1.6" fill="none"/>
<path d="M 669.5 192.0 L 672.5 179.0 M 669.5 192.0 L 672.5 203.0" stroke="#58a6ff" stroke-width="1.6" fill="none"/>
<text x="708.0" y="196.0" fill="#e6edf3" font-size="12" text-anchor="middle">134</text>
<path d="M 749.5 179.0 L 820.4 179.0" stroke="#58a6ff" stroke-width="1.6" fill="none"/>
<path d="M 749.5 203.0 L 820.4 203.0" stroke="#58a6ff" stroke-width="1.6" fill="none"/>
<path d="M 746.5 192.0 L 749.5 179.0 M 746.5 192.0 L 749.5 203.0" stroke="#58a6ff" stroke-width="1.6" fill="none"/>
<text x="784.9" y="196.0" fill="#e6edf3" font-size="12" text-anchor="middle">300</text>
<path d="M 826.4 179.0 L 897.3 179.0" stroke="#58a6ff" stroke-width="1.6" fill="none"/>
<path d="M 826.4 203.0 L 897.3 203.0" stroke="#58a6ff" stroke-width="1.6" fill="none"/>
<path d="M 823.4 192.0 L 826.4 179.0 M 823.4 192.0 L 826.4 203.0" stroke="#58a6ff" stroke-width="1.6" fill="none"/>
<text x="861.8" y="196.0" fill="#e6edf3" font-size="12" text-anchor="middle">420</text>
<path d="M 903.3 179.0 L 974.2 179.0" stroke="#58a6ff" stroke-width="1.6" fill="none"/>
<path d="M 903.3 203.0 L 974.2 203.0" stroke="#58a6ff" stroke-width="1.6" fill="none"/>
<path d="M 900.3 192.0 L 903.3 179.0 M 900.3 192.0 L 903.3 203.0" stroke="#58a6ff" stroke-width="1.6" fill="none"/>
<text x="938.8" y="196.0" fill="#e6edf3" font-size="12" text-anchor="middle">460</text>
<path d="M 980.2 179.0 L 1051.2 179.0" stroke="#58a6ff" stroke-width="1.6" fill="none"/>
<path d="M 980.2 203.0 L 1051.2 203.0" stroke="#58a6ff" stroke-width="1.6" fill="none"/>
<path d="M 977.2 192.0 L 980.2 179.0 M 977.2 192.0 L 980.2 203.0" stroke="#58a6ff" stroke-width="1.6" fill="none"/>
<text x="1015.7" y="196.0" fill="#e6edf3" font-size="12" text-anchor="middle">445</text>
<path d="M 1057.2 179.0 L 1128.1 179.0" stroke="#58a6ff" stroke-width="1.6" fill="none"/>
<path d="M 1057.2 203.0 L 1128.1 203.0" stroke="#58a6ff" stroke-width="1.6" fill="none"/>
<path d="M 1054.2 192.0 L 1057.2 179.0 M 1054.2 192.0 L 1057.2 203.0" stroke="#58a6ff" stroke-width="1.6" fill="none"/>
<text x="1092.6" y="196.0" fill="#e6edf3" font-size="12" text-anchor="middle">430</text>
<path d="M 1134.1 179.0 L 1205.0 179.0" stroke="#58a6ff" stroke-width="1.6" fill="none"/>
<path d="M 1134.1 203.0 L 1205.0 203.0" stroke="#58a6ff" stroke-width="1.6" fill="none"/>
<path d="M 1131.1 192.0 L 1134.1 179.0 M 1131.1 192.0 L 1134.1 203.0" stroke="#58a6ff" stroke-width="1.6" fill="none"/>
<text x="1169.5" y="196.0" fill="#e6edf3" font-size="12" text-anchor="middle">415</text>
<path d="M 1208.0 192.0 L 1205.0 179.0 M 1208.0 192.0 L 1205.0 203.0" stroke="#58a6ff" stroke-width="1.6" fill="none"/>
<line x1="208" y1="212" x2="1208" y2="212" stroke="#161b22" stroke-width="1"/>
<text x="198" y="236.0" fill="#e6edf3" font-size="13" text-anchor="end">avg_moisture</text>
<path d="M 211.0 219.0 L 281.9 219.0" stroke="#58a6ff" stroke-width="1.6" fill="none"/>
<path d="M 211.0 243.0 L 281.9 243.0" stroke="#58a6ff" stroke-width="1.6" fill="none"/>
<path d="M 208.0 232.0 L 211.0 219.0 M 208.0 232.0 L 211.0 243.0" stroke="#58a6ff" stroke-width="1.6" fill="none"/>
<text x="246.5" y="236.0" fill="#e6edf3" font-size="12" text-anchor="middle">267</text>
<path d="M 287.9 219.0 L 358.8 219.0" stroke="#58a6ff" stroke-width="1.6" fill="none"/>
<path d="M 287.9 243.0 L 358.8 243.0" stroke="#58a6ff" stroke-width="1.6" fill="none"/>
<path d="M 284.9 232.0 L 287.9 219.0 M 284.9 232.0 L 287.9 243.0" stroke="#58a6ff" stroke-width="1.6" fill="none"/>
<text x="323.4" y="236.0" fill="#e6edf3" font-size="12" text-anchor="middle">253</text>
<path d="M 364.8 219.0 L 435.8 219.0" stroke="#58a6ff" stroke-width="1.6" fill="none"/>
<path d="M 364.8 243.0 L 435.8 243.0" stroke="#58a6ff" stroke-width="1.6" fill="none"/>
<path d="M 361.8 232.0 L 364.8 219.0 M 361.8 232.0 L 364.8 243.0" stroke="#58a6ff" stroke-width="1.6" fill="none"/>
<text x="400.3" y="236.0" fill="#e6edf3" font-size="12" text-anchor="middle">239</text>
<path d="M 441.8 219.0 L 512.7 219.0" stroke="#58a6ff" stroke-width="1.6" fill="none"/>
<path d="M 441.8 243.0 L 512.7 243.0" stroke="#58a6ff" stroke-width="1.6" fill="none"/>
<path d="M 438.8 232.0 L 441.8 219.0 M 438.8 232.0 L 441.8 243.0" stroke="#58a6ff" stroke-width="1.6" fill="none"/>
<text x="477.2" y="236.0" fill="#e6edf3" font-size="12" text-anchor="middle">225</text>
<path d="M 518.7 219.0 L 589.6 219.0" stroke="#58a6ff" stroke-width="1.6" fill="none"/>
<path d="M 518.7 243.0 L 589.6 243.0" stroke="#58a6ff" stroke-width="1.6" fill="none"/>
<path d="M 515.7 232.0 L 518.7 219.0 M 515.7 232.0 L 518.7 243.0" stroke="#58a6ff" stroke-width="1.6" fill="none"/>
<text x="554.2" y="236.0" fill="#e6edf3" font-size="12" text-anchor="middle">211</text>
<path d="M 595.6 219.0 L 666.5 219.0" stroke="#58a6ff" stroke-width="1.6" fill="none"/>
<path d="M 595.6 243.0 L 666.5 243.0" stroke="#58a6ff" stroke-width="1.6" fill="none"/>
<path d="M 592.6 232.0 L 595.6 219.0 M 592.6 232.0 L 595.6 243.0" stroke="#58a6ff" stroke-width="1.6" fill="none"/>
<text x="631.1" y="236.0" fill="#e6edf3" font-size="12" text-anchor="middle">197</text>
<path d="M 672.5 219.0 L 743.5 219.0" stroke="#58a6ff" stroke-width="1.6" fill="none"/>
<path d="M 672.5 243.0 L 743.5 243.0" stroke="#58a6ff" stroke-width="1.6" fill="none"/>
<path d="M 669.5 232.0 L 672.5 219.0 M 669.5 232.0 L 672.5 243.0" stroke="#58a6ff" stroke-width="1.6" fill="none"/>
<text x="708.0" y="236.0" fill="#e6edf3" font-size="12" text-anchor="middle">183</text>
<path d="M 749.5 219.0 L 820.4 219.0" stroke="#58a6ff" stroke-width="1.6" fill="none"/>
<path d="M 749.5 243.0 L 820.4 243.0" stroke="#58a6ff" stroke-width="1.6" fill="none"/>
<path d="M 746.5 232.0 L 749.5 219.0 M 746.5 232.0 L 749.5 243.0" stroke="#58a6ff" stroke-width="1.6" fill="none"/>
<text x="784.9" y="236.0" fill="#e6edf3" font-size="12" text-anchor="middle">191</text>
<path d="M 826.4 219.0 L 897.3 219.0" stroke="#58a6ff" stroke-width="1.6" fill="none"/>
<path d="M 826.4 243.0 L 897.3 243.0" stroke="#58a6ff" stroke-width="1.6" fill="none"/>
<path d="M 823.4 232.0 L 826.4 219.0 M 823.4 232.0 L 826.4 243.0" stroke="#58a6ff" stroke-width="1.6" fill="none"/>
<text x="861.8" y="236.0" fill="#e6edf3" font-size="12" text-anchor="middle">216</text>
<path d="M 903.3 219.0 L 974.2 219.0" stroke="#58a6ff" stroke-width="1.6" fill="none"/>
<path d="M 903.3 243.0 L 974.2 243.0" stroke="#58a6ff" stroke-width="1.6" fill="none"/>
<path d="M 900.3 232.0 L 903.3 219.0 M 900.3 232.0 L 903.3 243.0" stroke="#58a6ff" stroke-width="1.6" fill="none"/>
<text x="938.8" y="236.0" fill="#e6edf3" font-size="12" text-anchor="middle">248</text>
<path d="M 980.2 219.0 L 1051.2 219.0" stroke="#58a6ff" stroke-width="1.6" fill="none"/>
<path d="M 980.2 243.0 L 1051.2 243.0" stroke="#58a6ff" stroke-width="1.6" fill="none"/>
<path d="M 977.2 232.0 L 980.2 219.0 M 977.2 232.0 L 980.2 243.0" stroke="#58a6ff" stroke-width="1.6" fill="none"/>
<text x="1015.7" y="236.0" fill="#e6edf3" font-size="12" text-anchor="middle">280</text>
<path d="M 1057.2 219.0 L 1128.1 219.0" stroke="#58a6ff" stroke-width="1.6" fill="none"/>
<path d="M 1057.2 243.0 L 1128.1 243.0" stroke="#58a6ff" stroke-width="1.6" fill="none"/>
<path d="M 1054.2 232.0 L 1057.2 219.0 M 1054.2 232.0 L 1057.2 243.0" stroke="#58a6ff" stroke-width="1.6" fill="none"/>
<text x="1092.6" y="236.0" fill="#e6edf3" font-size="12" text-anchor="middle">312</text>
<path d="M 1134.1 219.0 L 1205.0 219.0" stroke="#58a6ff" stroke-width="1.6" fill="none"/>
<path d="M 1134.1 243.0 L 1205.0 243.0" stroke="#58a6ff" stroke-width="1.6" fill="none"/>
<path d="M 1131.1 232.0 L 1134.1 219.0 M 1131.1 232.0 L 1134.1 243.0" stroke="#58a6ff" stroke-width="1.6" fill="none"/>
<text x="1169.5" y="236.0" fill="#e6edf3" font-size="12" text-anchor="middle">344</text>
<path d="M 1208.0 232.0 L 1205.0 219.0 M 1208.0 232.0 L 1205.0 243.0" stroke="#58a6ff" stroke-width="1.6" fill="none"/>
<line x1="208" y1="252" x2="1208" y2="252" stroke="#161b22" stroke-width="1"/>
<text x="198" y="276.0" fill="#e6edf3" font-size="13" text-anchor="end">crop_health</text>
<path d="M 211.0 259.0 L 589.6 259.0" stroke="#58a6ff" stroke-width="1.6" fill="none"/>
<path d="M 211.0 283.0 L 589.6 283.0" stroke="#58a6ff" stroke-width="1.6" fill="none"/>
<path d="M 208.0 272.0 L 211.0 259.0 M 208.0 272.0 L 211.0 283.0" stroke="#58a6ff" stroke-width="1.6" fill="none"/>
<text x="400.3" y="276.0" fill="#e6edf3" font-size="12" text-anchor="middle">255</text>
<path d="M 595.6 259.0 L 820.4 259.0" stroke="#58a6ff" stroke-width="1.6" fill="none"/>
<path d="M 595.6 283.0 L 820.4 283.0" stroke="#58a6ff" stroke-width="1.6" fill="none"/>
<path d="M 592.6 272.0 L 595.6 259.0 M 592.6 272.0 L 595.6 283.0" stroke="#58a6ff" stroke-width="1.6" fill="none"/>
<text x="708.0" y="276.0" fill="#e6edf3" font-size="12" text-anchor="middle">195</text>
<path d="M 826.4 259.0 L 1205.0 259.0" stroke="#58a6ff" stroke-width="1.6" fill="none"/>
<path d="M 826.4 283.0 L 1205.0 283.0" stroke="#58a6ff" stroke-width="1.6" fill="none"/>
<path d="M 823.4 272.0 L 826.4 259.0 M 823.4 272.0 L 826.4 283.0" stroke="#58a6ff" stroke-width="1.6" fill="none"/>
<text x="1015.7" y="276.0" fill="#e6edf3" font-size="12" text-anchor="middle">255</text>
<path d="M 1208.0 272.0 L 1205.0 259.0 M 1208.0 272.0 L 1205.0 283.0" stroke="#58a6ff" stroke-width="1.6" fill="none"/>
<line x1="208" y1="292" x2="1208" y2="292" stroke="#161b22" stroke-width="1"/>
<text x="198" y="316.0" fill="#e6edf3" font-size="13" text-anchor="end">status</text>
<path d="M 211.0 299.0 L 589.6 299.0" stroke="#58a6ff" stroke-width="1.6" fill="none"/>
<path d="M 211.0 323.0 L 589.6 323.0" stroke="#58a6ff" stroke-width="1.6" fill="none"/>
<path d="M 208.0 312.0 L 211.0 299.0 M 208.0 312.0 L 211.0 323.0" stroke="#58a6ff" stroke-width="1.6" fill="none"/>
<text x="400.3" y="316.0" fill="#e6edf3" font-size="12" text-anchor="middle">SAFE</text>
<path d="M 595.6 299.0 L 820.4 299.0" stroke="#58a6ff" stroke-width="1.6" fill="none"/>
<path d="M 595.6 323.0 L 820.4 323.0" stroke="#58a6ff" stroke-width="1.6" fill="none"/>
<path d="M 592.6 312.0 L 595.6 299.0 M 592.6 312.0 L 595.6 323.0" stroke="#58a6ff" stroke-width="1.6" fill="none"/>
<text x="708.0" y="316.0" fill="#e6edf3" font-size="12" text-anchor="middle">WARN</text>
<path d="M 826.4 299.0 L 1205.0 299.0" stroke="#58a6ff" stroke-width="1.6" fill="none"/>
<path d="M 826.4 323.0 L 1205.0 323.0" stroke="#58a6ff" stroke-width="1.6" fill="none"/>
<path d="M 823.4 312.0 L 826.4 299.0 M 823.4 312.0 L 826.4 323.0" stroke="#58a6ff" stroke-width="1.6" fill="none"/>
<text x="1015.7" y="316.0" fill="#e6edf3" font-size="12" text-anchor="middle">SAFE</text>
<path d="M 1208.0 312.0 L 1205.0 299.0 M 1208.0 312.0 L 1205.0 323.0" stroke="#58a6ff" stroke-width="1.6" fill="none"/>
<line x1="208" y1="332" x2="1208" y2="332" stroke="#161b22" stroke-width="1"/>
<text x="198" y="356.0" fill="#7ee787" font-size="13" text-anchor="end">pump_on</text>
<path d="M 208.0 363.0 L 592.6 363.0 L 592.6 339.0 L 1208.0 339.0 L 1208.0 363.0 L 1208.0 363.0" fill="none" stroke="#39d353" stroke-width="2"/>
<line x1="208" y1="372" x2="1208" y2="372" stroke="#161b22" stroke-width="1"/>
<line x1="208" y1="92" x2="208" y2="372" stroke="#30363d" stroke-width="1.4"/>
<line x1="323.4" y1="372" x2="323.4" y2="377" stroke="#8b98a5" stroke-width="1"/>
<text x="323.4" y="392" fill="#8b98a5" font-size="10" text-anchor="middle">400</text>
<line x1="477.2" y1="372" x2="477.2" y2="377" stroke="#8b98a5" stroke-width="1"/>
<text x="477.2" y="392" fill="#8b98a5" font-size="10" text-anchor="middle">420</text>
<line x1="631.1" y1="372" x2="631.1" y2="377" stroke="#8b98a5" stroke-width="1"/>
<text x="631.1" y="392" fill="#8b98a5" font-size="10" text-anchor="middle">440</text>
<line x1="784.9" y1="372" x2="784.9" y2="377" stroke="#8b98a5" stroke-width="1"/>
<text x="784.9" y="392" fill="#8b98a5" font-size="10" text-anchor="middle">460</text>
<line x1="938.8" y1="372" x2="938.8" y2="377" stroke="#8b98a5" stroke-width="1"/>
<text x="938.8" y="392" fill="#8b98a5" font-size="10" text-anchor="middle">480</text>
<line x1="1092.6" y1="372" x2="1092.6" y2="377" stroke="#8b98a5" stroke-width="1"/>
<text x="1092.6" y="392" fill="#8b98a5" font-size="10" text-anchor="middle">500</text>
<text x="1208" y="410" fill="#6a7581" font-size="11" text-anchor="end">time (ns) — 1 clk = 10 ns</text>
<line x1="592.6" y1="84" x2="592.6" y2="372" stroke="#39d353" stroke-width="1.4" stroke-dasharray="4 3"/>
<rect x="597.6" y="68" width="61" height="19" rx="3" fill="#39d353"/>
<text x="603.6" y="82.0" fill="#0d1117" font-size="12" font-weight="700" font-family="Helvetica,Arial">pump ON</text>
</svg>